<svg xmlns="http://www.w3.org/2000/svg" style="display: none;">
  
  <!-- Иконка: деньги -->
  <symbol id="money" viewBox="0 0 24 24">
    <circle cx="12" cy="12" r="10" stroke="currentColor" stroke-width="1.5"/>
    <path d="M8 12h8" stroke="currentColor" stroke-width="1.5"/>
    <path d="M12 8v8" stroke="currentColor" stroke-width="1.5"/>
    <path d="M10 10c0-1.1.9-2 2-2s2 .9 2 2" stroke="currentColor" stroke-width="1.5"/>
    <path d="M10 14c0 1.1.9 2 2 2s2-.9 2-2" stroke="currentColor" stroke-width="1.5"/>
  </symbol>

  <!-- Иконка: звезда -->
  <symbol id="star" viewBox="0 0 24 24">
    <polygon points="12 2 15.09 8.26 22 9.27 17 14.14 18.18 21.02 12 17.77 5.82 21.02 7 14.14 2 9.27 8.91 8.26 12 2" stroke="currentColor" stroke-width="1.5" fill="none"/>
  </symbol>

  <!-- Иконка: часы -->
  <symbol id="clock" viewBox="0 0 24 24">
    <circle cx="12" cy="12" r="10" stroke="currentColor" stroke-width="1.5"/>
    <polyline points="12 6 12 12 16 14" stroke="currentColor" stroke-width="1.5"/>
  </symbol>

  <!-- Иконка: локация -->
  <symbol id="location" viewBox="0 0 24 24">
    <path d="M21 10c0 7-9 13-9 13s-9-6-9-13a9 9 0 0 1 18 0z" stroke="currentColor" stroke-width="1.5"/>
    <circle cx="12" cy="10" r="3" stroke="currentColor" stroke-width="1.5"/>
  </symbol>
<!-- Иконка: телефон -->
  <symbol id="phone" viewBox="0 0 24 24">
    <path d="M22 16.92v3a2 2 0 0 1-2.18 2 19.79 19.79 0 0 1-8.63-3.07 19.5 19.5 0 0 1-6-6 19.79 19.79 0 0 1-3.07-8.67A2 2 0 0 1 4.11 2h3a2 2 0 0 1 2 1.72c.127.96.362 1.903.7 2.81a2 2 0 0 1-.45 2.11L8.09 9.91a16 16 0 0 0 6 6l1.27-1.27a2 2 0 0 1 2.11-.45c.907.338 1.85.573 2.81.7A2 2 0 0 1 22 16.92z" stroke="currentColor" stroke-width="1.5" fill="none"/>
  </symbol>

  <!-- Иконка: email -->
  <symbol id="email" viewBox="0 0 24 24">
    <path d="M4 4h16c1.1 0 2 .9 2 2v12c0 1.1-.9 2-2 2H4c-1.1 0-2-.9-2-2V6c0-1.1.9-2 2-2z" stroke="currentColor" stroke-width="1.5" fill="none"/>
    <polyline points="22,6 12,13 2,6" stroke="currentColor" stroke-width="1.5"/>
  </symbol>

  <!-- Иконка: VK -->
  <symbol id="vk" viewBox="0 0 24 24">
    <path d="M21.547 7.107c.104-.362 0-.607-.5-.607h-1.845c-.417 0-.61.215-.715.452 0 0-.836 1.998-2.02 3.297-.382.375-.556.494-.764.494-.104 0-.255-.119-.255-.48V7.107c0-.43-.125-.607-.484-.607h-2.857c-.278 0-.445.196-.445.386 0 .41.632.504.695 1.656v2.5c0 .55-.102.65-.326.65-.764 0-2.62-2.757-3.72-5.913-.215-.62-.43-.868-.852-.868H5.28c-.486 0-.584.226-.584.452 0 .425.593 2.53 2.76 5.32 1.446 2.054 3.48 3.166 5.335 3.166 1.112 0 1.25-.246 1.25-.668v-1.54c0-.487.104-.584.45-.584.255 0 .694.125 1.716 1.09 1.172 1.15 1.364 1.664 2.024 1.664h1.846c.486 0 .73-.246.59-.73-.153-.476-.705-1.166-1.437-1.986-.398-.465-.995-.966-1.176-1.217-.253-.33-.18-.477 0-.77 0 0 2.078-2.88 2.294-3.857z" fill="currentColor"/>
  </symbol>

  <!-- Иконка: Telegram -->
  <symbol id="telegram" viewBox="0 0 24 24">
    <path d="M12 0C5.373 0 0 5.373 0 12s5.373 12 12 12 12-5.373 12-12S18.627 0 12 0zm5.562 8.161c-.18 1.897-.962 6.502-1.359 8.627-.168.9-.5 1.201-.82 1.23-.697.065-1.226-.46-1.901-.902-1.056-.693-1.653-1.124-2.678-1.8-1.185-.78-.417-1.21.258-1.91.176-.183 3.236-2.967 3.295-3.22.007-.032.014-.15-.056-.212-.07-.063-.174-.04-.249-.024-.106.022-1.793 1.14-5.062 3.345-.48.33-.915.49-1.302.48-.428-.01-1.252-.242-1.865-.44-.752-.244-1.35-.373-1.298-.788.027-.215.324-.435.89-.66 3.504-1.527 5.84-2.532 7.008-3.015 3.337-1.382 4.03-1.622 4.482-1.63.1-.001.322.023.466.14.122.099.156.234.17.368.014.134.01.323-.006.413z" fill="currentColor"/>
  </symbol>

  <!-- Иконка: WhatsApp -->
  <symbol id="whatsapp" viewBox="0 0 24 24">
    <path d="M12.031 6.172c-3.181 0-5.767 2.586-5.768 5.766-.001 1.298.38 2.27 1.019 3.287l-.582 2.128 2.277-.589c.925.478 1.927.73 3.054.73 3.18 0 5.767-2.586 5.768-5.766.001-3.18-2.585-5.767-5.766-5.767zm3.247 8.448c-.099.212-.206.333-.388.527-.182.194-.389.324-.653.397-.264.073-.502.11-.796.11-.294 0-.586-.037-.86-.11-.273-.073-.537-.194-.78-.33-.242-.136-.44-.303-.64-.495-.2-.192-.37-.409-.527-.65-.156-.242-.27-.505-.353-.78-.082-.274-.123-.56-.123-.848 0-.27.041-.53.11-.78.07-.25.175-.48.316-.69.14-.21.306-.39.495-.54.19-.15.4-.27.63-.35.23-.08.48-.12.73-.12.28 0 .54.04.79.12.25.08.48.2.69.35.21.15.39.33.54.54.15.21.27.44.35.69.08.25.12.51.12.78 0 .16-.02.33-.05.49-.03.16-.08.31-.14.46-.06.15-.14.29-.23.43-.09.14-.19.27-.3.39-.11.12-.24.23-.38.33-.14.1-.29.18-.46.24-.17.06-.34.09-.52.09-.18 0-.35-.03-.52-.09-.17-.06-.32-.14-.46-.24-.14-.1-.27-.21-.38-.33-.11-.12-.2-.25-.28-.39-.08-.14-.13-.29-.17-.44-.04-.15-.06-.31-.06-.47 0-.32.06-.63.18-.92.12-.29.29-.54.51-.74.22-.2.48-.35.78-.44.3-.09.61-.09.91 0 .3.09.56.24.78.44.22.2.39.45.51.74.12.29.18.6.18.92 0 .27-.05.53-.15.78-.1.25-.24.48-.42.69-.18.21-.4.38-.66.51-.26.13-.55.2-.87.2-.33 0-.64-.07-.94-.21-.3-.14-.56-.34-.78-.59-.22-.25-.39-.55-.51-.89-.12-.34-.18-.7-.18-1.07 0-.54.14-1.05.41-1.51.27-.46.65-.84 1.12-1.12.47-.28 1-.42 1.6-.42.55 0 1.07.14 1.52.41.45.27.82.65 1.08 1.12.26.47.39.99.39 1.55 0 .56-.13 1.08-.39 1.55-.26.47-.63.85-1.08 1.12-.45.27-.97.41-1.52.41-.27 0-.53-.03-.78-.09-.25-.06-.49-.15-.71-.27-.22-.12-.42-.27-.6-.44-.18-.17-.33-.37-.45-.59-.12-.22-.21-.46-.27-.71-.06-.25-.09-.51-.09-.78z" fill="currentColor"/>
  </symbol>
</svg>